<svg width="33" height="33" viewBox="0 0 33 33" fill="none" xmlns="http://www.w3.org/2000/svg">
<path d="M7.21875 15.4688H27.8438C28.1173 15.4688 28.3796 15.5774 28.573 15.7708C28.7664 15.9642 28.875 16.2265 28.875 16.5C28.875 16.7735 28.7664 17.0358 28.573 17.2292C28.3796 17.4226 28.1173 17.5312 27.8438 17.5312H7.21875C6.94525 17.5312 6.68294 17.4226 6.48955 17.2292C6.29615 17.0358 6.1875 16.7735 6.1875 16.5C6.1875 16.2265 6.29615 15.9642 6.48955 15.7708C6.68294 15.5774 6.94525 15.4688 7.21875 15.4688Z" fill="#444444"/>
<path d="M7.64558 16.4998L16.1988 25.051C16.3924 25.2446 16.5012 25.5072 16.5012 25.7811C16.5012 26.0549 16.3924 26.3176 16.1988 26.5112C16.0051 26.7049 15.7425 26.8136 15.4686 26.8136C15.1948 26.8136 14.9322 26.7049 14.7385 26.5112L5.45727 17.23C5.36123 17.1342 5.28503 17.0204 5.23305 16.8951C5.18106 16.7698 5.1543 16.6355 5.1543 16.4998C5.1543 16.3642 5.18106 16.2299 5.23305 16.1046C5.28503 15.9793 5.36123 15.8655 5.45727 15.7697L14.7385 6.48846C14.9322 6.29482 15.1948 6.18604 15.4686 6.18604C15.7425 6.18604 16.0051 6.29482 16.1988 6.48846C16.3924 6.6821 16.5012 6.94474 16.5012 7.21859C16.5012 7.49244 16.3924 7.75507 16.1988 7.94871L7.64558 16.4998Z" fill="#444444"/>
</svg>
