<svg width="1249" height="400" viewBox="0 0 1249 400" fill="none" xmlns="http://www.w3.org/2000/svg">
<g filter="url(#filter0_d_823_623)">
<rect x="48" y="48" width="1141" height="292" rx="14" fill="#4880FF"/>
</g>
<mask id="mask0_823_623" style="mask-type:luminance" maskUnits="userSpaceOnUse" x="48" y="48" width="1141" height="292">
<rect x="48" y="48" width="1141" height="292" rx="14" fill="white"/>
</mask>
<g mask="url(#mask0_823_623)">
<g opacity="0.1">
<g opacity="0.3">
<path d="M125.183 497.659C162.855 519.011 187.442 549.635 209.028 576.676C233.531 607.3 254.784 633.779 287.956 638.064C291.04 638.485 294.207 638.626 297.374 638.626C322.961 638.626 353.382 626.194 391.971 599.995C420.892 580.329 444.978 562.488 466.231 546.685C511.071 513.322 543.492 489.231 579.331 481.434C615.919 473.427 656.092 481.856 717.934 510.442C768.441 533.831 828.7 549.916 883.124 554.551C908.461 556.729 931.465 556.307 949.717 553.217C968.97 549.986 982.472 544.156 989.723 535.798C999.641 524.349 1002.06 503.067 956.968 466.614C903.044 422.997 841.702 417.729 776.776 412.18C733.77 408.528 689.263 404.665 644.34 389.423C593.5 372.215 549.41 342.294 509.488 298.115C479.983 265.454 445.562 250.002 409.807 253.444C385.47 255.762 361.55 266.578 338.713 285.472C315.793 304.577 295.124 330.916 277.454 363.787C264.286 388.159 249.784 400.661 232.865 401.926C196.276 404.665 153.937 352.83 113.098 302.68C92.678 277.605 71.5916 251.758 51.5054 233.215C41.0873 223.593 31.5859 216.499 22.668 211.793V214.392C50.7553 229.984 81.2597 267.351 111.014 303.874C131.517 329.019 152.77 355.077 173.189 374.041C195.026 394.27 213.695 404.173 230.114 404.173C231.114 404.173 232.115 404.103 233.115 404.033C250.951 402.698 266.203 389.845 279.705 364.7C297.291 332.039 317.71 305.911 340.463 287.017C362.883 268.404 386.303 257.798 410.057 255.551C444.812 252.25 478.566 267.421 507.487 299.449C547.66 343.98 592.166 374.041 643.34 391.39C688.596 406.772 733.27 410.565 776.442 414.287C840.952 419.836 901.877 425.034 955.218 468.159C999.058 503.629 997.057 523.858 987.723 534.604C974.054 550.267 935.048 556.94 883.374 552.515C829.283 547.879 769.358 531.865 719.101 508.616C656.675 479.749 616.003 471.32 578.664 479.468C542.242 487.405 509.654 511.636 464.564 545.21C443.311 561.013 419.308 578.854 390.387 598.45C347.548 627.528 315.126 639.469 288.289 636.027C256.201 631.953 235.282 605.825 211.028 575.552C189.275 548.371 164.605 517.607 126.516 495.973C94.9283 478.063 64.8407 469.073 36.7533 469.073C32.0026 469.073 27.3353 469.354 22.668 469.845V471.952C54.2558 468.37 88.6774 477.009 125.183 497.659Z" fill="white"/>
<path fill-rule="evenodd" clip-rule="evenodd" d="M306.625 599.854C304.208 599.854 301.874 599.643 299.624 599.151C279.204 594.867 262.952 582.716 252.617 563.962C242.199 544.858 238.698 520.204 242.616 492.601C246.199 467.737 256.618 443.084 272.953 421.31C331.045 343.698 379.302 301.134 416.39 294.813C428.309 292.776 439.227 294.532 448.645 300.08C483.966 320.757 507.005 340.885 527.325 358.637L528.073 359.291L528.255 359.449C559.673 386.907 584.519 408.621 638.922 421.17C673.344 429.107 689.596 436.411 688.513 443.575C687.679 449.124 676.011 453.549 653.758 456.78C632.171 459.87 601 461.767 563.661 462.188C535.491 462.54 506.237 471.741 474.149 490.494C446.145 506.93 419.641 528.352 396.221 547.316C361.633 575.341 331.378 599.854 306.625 599.854ZM275.12 422.435C259.034 443.928 248.7 468.3 245.199 492.883C241.365 520.065 244.782 544.297 255.034 563.051C264.952 581.242 280.621 593.042 300.29 597.116C302.374 597.537 304.541 597.748 306.708 597.748C330.377 597.748 360.297 573.518 394.467 545.845L394.47 545.842C417.89 526.808 444.477 505.315 472.732 488.81C505.236 469.845 534.99 460.434 563.661 460.082C600.917 459.661 631.921 457.765 653.341 454.674C680.928 450.671 685.679 445.824 686.095 443.296C687.262 435.289 653.091 426.509 638.339 423.138C583.164 410.354 558.077 388.44 526.406 360.697L526.063 360.397C505.728 342.63 482.701 322.511 447.311 301.767C440.81 297.975 433.643 296.078 425.808 296.078C422.974 296.078 419.974 296.359 416.974 296.851C380.635 303.102 332.878 345.315 275.12 422.435Z" fill="white"/>
<path d="M1187.33 485.647C1181.42 480.45 1174.67 475.112 1167 469.774C1137.83 449.475 1100.82 432.759 1056.98 420.046C1002.22 404.172 936.632 394.479 862.038 391.248C819.365 389.422 737.52 383.03 668.427 360.625C595.667 337.095 555.328 302.328 548.66 257.305C540.909 205.189 548.493 172.88 572.58 155.531C598.917 136.567 646.591 135.725 718.267 153.143C768.025 165.224 808.28 181.8 840.618 195.145C872.54 208.35 897.793 218.745 920.296 220.571C944.717 222.538 963.803 214.18 982.139 193.46C993.807 180.255 1003.06 167.753 1011.23 156.726C1027.65 134.46 1039.56 118.376 1058.98 112.406C1079.49 106.084 1107.24 111.422 1151.91 130.246C1164.66 135.584 1176.42 141.554 1187.33 147.735V145.207C1176.75 139.236 1165.33 133.547 1153.08 128.35C1107.74 109.245 1079.4 103.907 1058.15 110.369C1037.9 116.62 1025.89 132.915 1009.14 155.531C1001.06 166.489 991.807 178.921 980.222 192.125C942.55 234.759 904.627 219.096 841.785 193.179C809.364 179.763 768.941 163.117 719.018 151.036C646.424 133.477 598 134.39 570.996 153.846C546.243 171.686 538.408 204.627 546.243 257.516C553.077 303.381 593.916 338.711 667.594 362.591C737.02 385.067 819.199 391.459 861.955 393.355C936.299 396.516 1001.56 406.209 1056.07 422.012C1099.57 434.655 1136.33 451.231 1165.25 471.319C1173.75 477.219 1181.08 483.119 1187.33 488.738V485.647V485.647Z" fill="white"/>
<path d="M1187.33 440.907C1169.66 429.739 1148.41 418.501 1124.32 407.895C1055.9 377.693 975.22 356.692 897.292 348.825C818.364 340.818 760.772 332.039 716.099 321.082C659.008 307.175 623.003 289.826 606 268.193C594.498 253.513 591.998 236.586 598.416 217.762C603.25 203.855 612.084 194.654 625.503 189.667C670.926 172.67 758.022 208.28 834.866 239.676C862.953 251.195 889.541 262.012 912.127 269.457C950.216 282.03 973.636 284.839 990.472 278.728C1006.72 272.829 1016.06 259.202 1028.89 240.309C1036.64 228.93 1045.4 216.077 1057.73 201.889C1070.9 186.717 1087.57 178.781 1107.32 178.289C1134.33 177.657 1163.58 191.072 1187.33 205.822V203.223C1150.41 180.537 1123.82 175.831 1107.32 176.182C1086.82 176.674 1069.48 184.891 1055.81 200.624C1043.4 214.883 1034.64 227.877 1026.81 239.255C1001.64 276.13 990.138 292.987 913.044 267.49C890.541 260.045 864.037 249.229 835.95 237.78C758.605 206.173 670.926 170.352 624.503 187.771C610.501 192.969 600.916 202.942 595.999 217.271C589.331 236.656 591.915 254.216 603.833 269.457C621.252 291.441 657.674 309.071 715.432 323.118C760.272 334.076 818.03 342.855 897.042 350.862C974.636 358.729 1054.98 379.66 1123.16 409.721C1147.58 420.538 1169.41 432.127 1187.33 443.646V440.907Z" fill="white"/>
<path d="M1187.33 409.09C1139.83 374.322 1075.4 360.415 1024.89 349.599C975.887 339.063 940.549 331.478 944.383 310.968C945.466 304.998 955.301 305.42 972.553 306.684C988.556 307.808 1008.39 309.283 1027.14 303.945C1049.31 297.623 1064.57 283.365 1073.73 260.327C1080.15 244.173 1090.4 234.901 1104.07 232.935C1129.08 229.282 1161.91 249.792 1187.42 270.16V267.21C1186.75 266.719 1186.17 266.157 1185.5 265.665C1151.83 239.537 1124.33 227.807 1103.66 230.827C1088.99 232.935 1078.15 242.627 1071.4 259.625C1051.23 310.266 1004.06 306.824 972.803 304.577C955.801 303.312 943.466 302.47 941.966 310.687C940.049 321.083 946.8 329.09 963.469 335.762C978.304 341.732 999.641 346.368 1024.31 351.636C1075.23 362.593 1140.16 376.57 1187.42 411.97V409.09H1187.33Z" fill="white"/>
<path d="M1187.33 390.408C1171.16 381.839 1153.41 369.688 1138.16 356.624C1115.32 337.027 1101.74 318.906 1099.99 305.491C1099.07 298.256 1101.65 292.497 1107.82 288.423C1129.49 274.095 1164.83 297.975 1187.33 317.01V313.989C1182.67 310.126 1177.58 306.123 1172.25 302.33C1159.83 293.55 1148.33 287.51 1138.24 284.42C1125.41 280.486 1114.57 281.259 1106.24 286.808C1099.4 291.303 1096.49 297.694 1097.49 305.772C1100.99 333.164 1149.74 373.27 1187.33 392.936V390.408V390.408Z" fill="white"/>
<path fill-rule="evenodd" clip-rule="evenodd" d="M901.901 306.119C902.189 306.292 902.349 306.388 902.376 306.403C912.294 312.654 915.711 317.782 912.794 321.715C909.461 325.859 898.709 327.475 884.54 327.475C865.121 327.475 839.117 324.454 816.281 320.591C760.689 311.25 707.682 295.376 674.51 278.168C637.172 258.782 624.503 237.781 637.922 217.413C641.506 211.934 647.506 208.422 655.674 206.877C682.011 201.89 731.602 217.202 802.945 252.25C853.082 276.831 896.881 303.107 901.901 306.119ZM879.79 325.226C902.876 325.718 909.044 322.417 910.627 320.45C913.294 317.009 906.793 311.881 900.876 308.159C898.709 306.824 735.352 208.07 666.259 208.07C662.592 208.07 659.258 208.351 656.174 208.913C648.757 210.318 643.339 213.479 640.089 218.395C633.421 228.509 633.504 238.764 640.422 248.948C646.673 258.22 658.591 267.421 675.76 276.341C708.682 293.409 761.356 309.212 816.697 318.484C840.451 322.487 862.87 324.875 879.79 325.226Z" fill="white"/>
<path fill-rule="evenodd" clip-rule="evenodd" d="M815.139 288.337C815.742 288.652 816.077 288.826 816.114 288.842C816.185 288.89 816.264 288.943 816.351 289C817.79 289.956 821.177 292.205 819.448 294.391C818.364 295.796 815.03 296.287 810.53 296.287C798.195 296.287 777.275 292.213 771.941 291.16C744.187 285.541 718.433 277.464 703.098 269.527C687.679 261.52 682.345 253.723 687.179 246.348C688.346 244.592 690.346 243.398 693.013 242.837C703.848 240.448 727.851 247.542 764.44 263.767C788.506 274.438 810.335 285.83 815.139 288.337ZM772.441 289.124C800.779 294.813 815.947 294.954 817.364 293.198C817.448 293.057 817.281 292.215 814.614 290.599C812.28 289.335 727.101 244.523 697.681 244.523C696.097 244.523 694.763 244.664 693.513 244.945C691.43 245.366 690.096 246.209 689.263 247.403C685.179 253.584 690.179 260.397 704.265 267.702C719.35 275.568 744.854 283.575 772.441 289.124Z" fill="white"/>
<path d="M114.346 464.858C145.851 475.745 175.939 486.21 196.275 486.21C201.776 486.21 206.526 485.437 210.443 483.752C215.944 481.364 219.445 477.079 220.945 471.109C224.529 457.062 206.776 443.506 179.856 422.996C153.185 402.698 116.68 374.954 84.4255 333.374C62.589 305.208 41.9194 287.087 22.8333 279.01V281.328C41.2526 289.405 61.1722 307.105 82.3419 334.497C114.846 376.359 151.435 404.173 178.189 424.542C204.443 444.559 221.862 457.764 218.528 470.617C217.111 476.026 214.111 479.678 209.277 481.785C192.024 489.441 154.769 476.517 115.347 462.821C89.3428 453.831 62.4223 444.489 39.0857 440.275C33.2515 439.221 27.7507 438.519 22.75 438.168V440.275C27.584 440.626 32.9181 441.258 38.5856 442.312C61.6722 446.596 88.4261 455.868 114.346 464.858Z" fill="white"/>
<path d="M104.096 215.726C122.849 244.804 142.935 274.726 162.521 296.569C184.108 320.52 202.86 332.18 219.946 332.18C220.113 332.18 220.28 332.18 220.446 332.18C237.449 331.969 252.451 320.45 266.286 297.131C295.374 248.176 329.795 218.255 365.884 210.739C390.554 205.612 415.891 210.669 441.144 225.911C460.564 237.64 474.399 241.503 483.234 237.781C496.319 232.302 497.069 211.863 497.903 188.263C498.819 162.346 499.819 132.916 518.239 119.431C526.823 113.18 538.325 110.862 553.411 112.266C592.916 116.059 630.505 111.002 662.093 97.7976C692.097 85.2251 715.35 66.0503 729.269 42.31C742.521 19.7638 746.355 -5.6621 740.521 -31.088C738.104 -41.6939 734.02 -52.089 728.436 -62.2734H725.602C745.105 -27.5762 746.188 8.94728 727.102 41.397C713.433 64.7158 690.597 83.5394 661.093 95.9012C629.921 108.965 592.749 113.882 553.744 110.159C538.158 108.684 525.657 111.213 516.655 117.815C497.402 131.863 496.402 161.784 495.402 188.123C494.652 210.107 493.902 230.897 482.15 235.814C474.149 239.185 461.231 235.322 442.561 224.084C416.641 208.492 390.637 203.294 365.217 208.562C328.378 216.288 293.373 246.56 264.036 296.078C250.617 318.624 236.365 329.721 220.446 329.932C220.28 329.932 220.113 329.932 219.946 329.932C183.691 329.932 143.935 272.97 106.263 214.532C83.1766 178.711 55.0893 154.128 22.668 141.064V143.382C54.2558 156.586 81.5931 180.748 104.096 215.726Z" fill="white"/>
<path d="M135.517 125.54C149.935 125.54 162.604 123.784 173.022 120.202C196.776 112.054 208.611 95.4077 208.194 70.5437C207.777 46.1713 215.528 28.0501 231.864 15.1966C272.12 -16.6912 358.799 -11.2126 450.645 -5.31271C464.147 -4.46986 478.149 -3.55677 491.901 -2.78416C505.32 -2.01155 517.655 -1.66037 528.99 -1.66037C580.747 -1.66037 610.085 -9.45672 616.502 -24.9792C621.003 -35.9362 613.502 -49.2111 601.5 -62.1348H598.25C610.585 -49.2813 618.419 -36.1469 614.169 -25.6113C606.834 -7.77102 565.828 -0.747273 492.151 -4.82104C478.399 -5.59365 464.397 -6.50674 450.895 -7.34959C358.549 -13.2495 271.286 -18.7983 230.197 13.7216C213.361 27.0667 205.36 45.6797 205.777 70.6842C206.194 94.5649 194.859 110.649 172.189 118.375C143.018 128.349 95.5944 123.784 41.92 105.873C35.5025 103.766 29.1682 101.448 22.834 99.0601V101.378C28.8348 103.696 34.919 105.873 41.0032 107.84C76.0916 119.499 108.763 125.54 135.517 125.54Z" fill="white"/>
<path d="M87.7606 58.6736C117.765 57.1283 143.185 43.8535 163.438 19.2001L166.772 15.1264C191.359 -14.7948 203.694 -29.8256 221.946 -36.0767C240.199 -42.3278 264.953 -40.0802 314.293 -35.5148C320.294 -34.9529 326.711 -34.391 333.462 -33.7589C391.887 -28.4208 434.227 -26.6649 462.898 -28.3506C490.485 -29.966 506.154 -34.6719 512.155 -43.1707C515.822 -48.3682 515.655 -54.6896 512.655 -62.1348H510.071C513.071 -54.9706 513.405 -49.0004 509.988 -44.2242C504.487 -36.4279 489.068 -31.9327 462.731 -30.3875C434.227 -28.772 392.054 -30.5279 333.712 -35.866C326.961 -36.4981 320.544 -37.06 314.543 -37.6219C264.786 -42.2576 239.866 -44.5754 220.946 -38.0433C202.027 -31.5113 189.525 -16.34 164.688 13.9323L161.354 18.0061C141.518 42.0975 116.765 55.0915 87.5939 56.5664C72.5918 57.3391 50.8387 55.1617 22.668 44.0642V46.382C47.4215 56.0045 67.2577 58.814 82.0098 58.814C84.0101 58.814 85.927 58.7438 87.7606 58.6736Z" fill="white"/>
<path d="M635.755 -10.366C619.169 17.0969 546.158 13.3743 545.325 13.304C504.402 13.304 466.397 10.8457 432.892 8.59813C383.052 5.29697 339.962 2.48747 308.124 9.44098C291.289 13.0933 278.203 19.3445 268.202 28.4753C257.367 38.3085 250.033 51.5834 245.699 68.9321C231.28 126.948 193.525 133.902 163.104 139.45C144.768 142.822 128.932 145.702 123.681 159.468C118.931 172.041 124.432 197.045 137.85 223.173C152.185 251.198 171.688 272.901 190.024 281.189C195.942 283.859 201.859 285.193 207.443 285.193C218.112 285.193 228.196 280.417 237.031 271.075C250.45 256.887 261.368 241.435 271.953 226.475C291.705 198.52 308.708 174.429 335.128 169.02C351.381 165.719 370.3 169.793 392.803 181.663C422.641 197.326 443.31 202.243 456.062 196.694C471.898 189.811 473.481 168.529 475.148 145.912C477.399 115.57 479.732 84.1736 516.738 85.5783C525.239 85.8593 533.407 86.07 541.324 86.07C621.336 86.07 673.26 70.1261 695.68 38.5193C713.349 13.7255 708.848 -16.1957 702.014 -36.8455C698.764 -46.7489 694.68 -55.4584 691.096 -62.2012H688.345C692.013 -55.4584 696.263 -46.3978 699.597 -36.2133C711.682 0.520827 702.931 24.1206 693.513 37.4657C669.343 71.4606 609.834 86.9831 516.821 83.5414C499.068 82.9093 487.233 89.2307 480.649 102.927C474.898 114.797 473.731 130.6 472.648 145.912C471.064 167.897 469.481 188.617 454.895 194.938C442.977 200.136 423.141 195.219 394.053 179.977C370.883 167.826 351.381 163.612 334.462 167.124C307.041 172.743 289.705 197.186 269.702 225.561C259.201 240.452 248.283 255.834 234.947 269.881C221.945 283.578 207.193 286.738 191.024 279.434C173.188 271.356 154.019 250.074 139.934 222.471C127.015 197.186 121.348 172.181 125.848 160.241C130.682 147.598 145.101 144.929 163.437 141.628C178.773 138.818 196.108 135.658 211.611 125.684C229.53 114.165 241.448 95.7627 247.949 69.4237C256.034 36.7633 274.703 18.923 308.541 11.5481C322.71 8.45765 339.296 7.33385 357.715 7.33385C380.051 7.33385 405.305 9.01956 432.476 10.7755C466.064 12.9528 504.069 15.4814 544.992 15.4814C544.992 15.4814 544.992 15.4814 545.075 15.4814C545.242 15.4814 564.078 16.535 584.664 14.0064C612.668 10.635 630.504 2.76842 637.838 -9.31241C645.756 -22.4468 640.672 -40.1466 622.669 -62.1309H619.669C638.005 -40.3573 643.339 -23.0087 635.755 -10.366Z" fill="white"/>
<path d="M642.089 15.1282C628.421 29.5268 587.081 35.497 522.655 32.4066C473.732 30.0887 428.392 23.2757 427.975 23.2055C427.725 23.1352 400.055 18.9912 368.883 24.1186C350.464 27.0685 334.462 32.6173 321.21 40.6244C304.624 50.5981 292.372 64.3646 284.871 81.5025C270.369 114.725 254.117 137.411 235.114 150.897C218.612 162.627 202.526 165.717 187.524 167.895C165.604 171.055 158.187 182.855 155.853 192.197C151.186 210.458 162.437 235.112 179.94 245.015C184.69 247.684 189.524 249.019 194.192 249.019C198.526 249.019 202.776 247.895 206.777 245.577C223.196 236.165 240.032 218.044 257.868 198.939C291.789 162.486 326.877 124.839 362.132 143.733C367.3 146.472 372.301 149.211 377.051 151.88C402.888 166.139 423.391 177.447 436.31 172.109C443.977 168.948 448.311 160.59 449.895 145.7C453.145 114.936 459.146 91.7572 477.899 78.693C491.234 69.3515 510.237 65.9098 536.074 68.0169C608.418 73.9871 656.091 63.1706 677.844 35.9887C695.263 14.2151 692.263 -14.0906 686.679 -34.038C683.512 -45.3462 679.178 -55.3199 675.761 -62.2734H673.094C676.511 -55.3902 681.011 -45.2057 684.262 -33.5463C689.679 -14.0203 692.596 13.6532 675.761 34.7947C654.591 61.2742 607.668 71.7395 536.324 65.9098C509.82 63.7325 490.234 67.3848 476.315 77.0776C456.979 90.6334 450.728 114.233 447.395 145.559C445.894 159.466 441.977 167.543 435.226 170.283C423.558 175.059 403.638 164.102 378.468 150.195C373.634 147.526 368.633 144.786 363.466 142.047C346.714 133.057 328.628 135.304 308.208 148.93C290.372 160.73 272.87 179.554 255.951 197.745C238.281 216.78 221.529 234.69 205.443 243.962C196.025 249.37 187.191 246.631 181.357 243.329C164.604 233.847 153.853 210.177 158.27 192.688C160.52 183.979 167.438 172.952 187.941 170.002C203.276 167.754 219.695 164.593 236.698 152.513C256.034 138.746 272.536 115.778 287.205 82.2049C294.539 65.4182 306.458 52.0028 322.543 42.3101C335.462 34.5137 351.214 29.1054 369.217 26.1555C380.885 24.259 392.053 23.6269 401.471 23.6269C416.807 23.6269 427.308 25.2424 427.475 25.2424C427.892 25.3126 473.398 32.1256 522.489 34.4435C588.665 37.6041 629.587 31.5637 644.006 16.3925C658.258 1.43189 661.592 -18.656 653.591 -41.9046C650.84 -49.8414 647.257 -56.8652 644.089 -62.2734H641.256C644.506 -56.9354 648.34 -49.6307 651.174 -41.3427C656.591 -25.5393 659.425 -3.06331 642.089 15.1282Z" fill="white"/>
<path fill-rule="evenodd" clip-rule="evenodd" d="M375.384 42.9437C384.302 39.2914 394.22 38.5188 403.388 40.8366C412.306 43.0842 419.057 47.7901 423.391 54.8138C436.393 75.9553 424.891 113.111 416.89 133.339C414.807 138.677 412.223 141.487 408.806 142.119C408.306 142.189 407.806 142.259 407.306 142.259C401.753 142.259 395.377 136.774 387.44 129.946L387.303 129.827C379.718 123.295 371.134 115.92 360.799 110.723C343.546 102.013 335.045 92.2504 335.545 81.5743C336.462 62.9614 365.383 47.0877 375.384 42.9437ZM408.306 140.082C410.723 139.591 412.806 137.203 414.557 132.708C432.892 86.2104 426.558 64.5773 421.141 55.8678C417.14 49.406 410.889 45.0513 402.638 42.9441C399.388 42.1013 396.054 41.6799 392.637 41.6799C387.136 41.6799 381.635 42.7334 376.468 44.8406C366.8 48.8441 338.879 64.0856 338.046 81.645C337.546 91.4782 345.713 100.679 362.132 108.897C372.618 114.116 381.632 121.885 388.931 128.176L389.136 128.353L389.231 128.434C397.025 135.142 403.74 140.922 408.306 140.082Z" fill="white"/>
<path fill-rule="evenodd" clip-rule="evenodd" d="M379.885 75.5329C382.802 74.3389 386.052 74.058 389.053 74.8306C392.053 75.6032 394.303 77.1484 395.72 79.5365C399.887 86.2793 396.304 97.8684 393.803 104.19C393.387 105.384 392.553 106.999 390.719 107.35C390.469 107.421 390.303 107.421 390.053 107.421C387.989 107.421 386.007 105.698 383.378 103.413L383.302 103.347C381.051 101.38 378.468 99.1327 375.384 97.5875C369.8 94.778 367.049 91.5471 367.216 87.965C367.529 81.252 378.305 76.2657 379.73 75.6064C379.826 75.5621 379.879 75.5374 379.885 75.5329ZM390.219 105.243C390.469 105.243 390.97 104.681 391.47 103.487C393.303 98.6404 397.387 86.7 393.637 80.4489C392.47 78.6227 390.803 77.4287 388.469 76.8668C387.552 76.6561 386.552 76.5156 385.635 76.5156C384.052 76.5156 382.552 76.7966 381.051 77.4287C378.801 78.412 370.05 82.9775 369.8 88.1048C369.633 90.7738 371.967 93.3726 376.717 95.7607C380.051 97.4464 382.885 99.9047 385.135 101.871C385.249 101.967 385.364 102.064 385.48 102.162C387.252 103.659 389.359 105.44 390.219 105.243Z" fill="white"/>
<path d="M1187.33 100.676C1141.24 73.002 1085.74 49.9641 1041.73 62.8878C1009.89 72.2294 987.805 99.4815 976.22 143.872C970.886 164.381 957.55 177.305 936.631 182.291C897.458 191.703 834.783 170.07 791.027 131.931C755.938 101.448 741.853 67.9449 752.354 40.0607C762.106 14.2133 764.856 -13.8817 760.606 -43.3111C759.689 -49.5623 758.439 -55.8134 756.938 -62.1348H754.355C755.938 -55.6729 757.188 -49.3516 758.105 -43.0302C762.356 -13.8817 759.605 13.9323 750.021 39.4988C739.186 68.1556 753.521 102.361 789.276 133.476C810.113 151.598 836.283 166.839 863.037 176.391C882.04 183.204 900.376 186.646 916.545 186.646C924.046 186.646 931.047 185.873 937.381 184.399C958.884 179.271 973.219 165.434 978.72 144.363C990.138 100.746 1011.56 74.0556 1042.56 64.9247C1086.07 52.1415 1141.49 75.6008 1187.33 103.345V100.676V100.676Z" fill="white"/>
<path d="M1187.33 45.9644C1153.33 21.4516 1099.99 -0.251789 1056.65 7.12314C1029.73 11.6886 1009.23 26.7896 995.807 51.8644C977.221 86.5616 953.634 110.864 925.63 124.209C895.626 138.467 868.955 136.079 851.869 131.584C831.2 126.105 813.364 114.586 801.612 99.1341C789.444 83.1902 784.943 64.3666 789.027 46.1751C797.445 8.38741 800.695 -27.9956 798.612 -62.2012H796.111C798.112 -28.2063 794.945 8.10646 786.61 45.7537C782.443 64.5071 787.027 83.8224 799.529 100.188C811.614 116.061 829.95 127.861 851.203 133.48C860.121 135.868 869.289 136.992 878.457 136.992C894.876 136.992 911.461 133.27 926.88 125.965C955.384 112.409 979.304 87.7557 998.14 52.637C1011.23 28.1944 1031.06 13.585 1057.15 9.08979C1078.32 5.50768 1103.74 8.7386 1130.66 18.5718C1150.83 25.9468 1171.17 36.7633 1187.33 48.7037V45.9644V45.9644Z" fill="white"/>
<path d="M1187.33 4.52255C1180.5 5.01421 1172.92 5.01421 1164.83 4.38207C1136.41 2.13448 1102.07 -7.13686 1070.57 -21.1843C1034.06 -37.4794 1003.56 -13.1773 968.303 14.9177C941.465 36.3401 911.044 60.572 873.372 69.3517C860.12 72.4421 849.869 70.8266 842.785 64.716C818.698 43.715 834.784 -25.0474 845.785 -62.0625H843.201C839.868 -50.7543 836.034 -36.6366 833.033 -21.8867C823.782 23.9783 826.449 53.6185 840.951 66.2612C846.202 70.8266 852.953 73.0742 861.121 73.0742C865.121 73.0742 869.372 72.5123 874.039 71.4588C912.211 62.6089 942.966 38.1663 969.97 16.5331C1004.56 -10.9999 1034.4 -34.8104 1069.32 -19.2177C1101.49 -4.81903 1135.33 4.31184 1164.5 6.55943C1172.67 7.19157 1180.33 7.26181 1187.25 6.77015V4.52255H1187.33Z" fill="white"/>
<path fill-rule="evenodd" clip-rule="evenodd" d="M671.927 121.959C671.26 116.34 680.345 109.738 698.847 102.222C711.016 97.3057 725.434 98.851 735.603 106.226C743.604 112.056 752.272 120.344 747.938 127.227C744.604 132.565 734.019 135.374 719.934 135.374C710.516 135.374 699.514 134.11 688.012 131.511C677.594 129.194 672.344 126.033 671.927 121.959ZM688.596 129.476C715.183 135.516 740.77 134.041 745.687 126.245C748.521 121.82 744.437 115.428 733.936 107.843C728.102 103.699 720.85 101.521 713.516 101.521C708.849 101.521 704.181 102.364 699.847 104.12C682.928 111.004 673.844 117.255 674.344 121.75C674.677 124.77 679.595 127.439 688.596 129.476Z" fill="white"/>
</g>
<g opacity="0.21">
<path d="M124.221 496.763C161.877 518.1 186.454 548.701 208.031 575.723C232.524 606.325 253.768 632.785 286.925 637.067C290.007 637.488 293.173 637.628 296.339 637.628C321.915 637.628 352.323 625.205 390.895 599.025C419.804 579.373 443.88 561.546 465.124 545.753C509.945 512.415 542.352 488.34 578.175 480.55C614.748 472.548 654.903 480.971 716.719 509.537C767.205 532.909 827.437 548.982 881.839 553.614C907.165 555.79 930.158 555.369 948.403 552.281C967.647 549.052 981.144 543.227 988.391 534.874C998.305 523.434 1000.72 502.167 955.651 465.74C901.75 422.154 840.434 416.89 775.536 411.345C732.548 407.695 688.061 403.835 643.157 388.604C592.338 371.409 548.267 341.509 508.362 297.361C478.87 264.724 444.463 249.283 408.724 252.722C384.397 255.038 360.487 265.847 337.661 284.728C314.75 303.818 294.09 330.139 276.428 362.986C263.265 387.341 248.769 399.834 231.857 401.098C195.284 403.835 152.963 352.037 112.142 301.923C91.7307 276.867 70.6534 251.038 50.5758 232.508C40.1621 222.752 30.6648 215.663 21.834 210.961V213.558C49.9093 229.139 80.4006 266.479 110.142 302.976C130.636 328.103 151.88 354.143 172.291 373.093C194.118 393.307 212.779 403.203 229.191 403.203C230.191 403.203 231.191 403.133 232.191 403.063C250.019 401.729 265.265 388.885 278.761 363.758C296.339 331.121 316.75 305.012 339.493 286.131C361.904 267.532 385.314 256.933 409.057 254.688C443.797 251.389 477.537 266.549 506.446 298.554C546.601 343.053 591.088 373.093 642.24 390.429C687.477 405.8 732.131 409.59 775.286 413.31C839.767 418.855 900.667 424.049 953.985 467.144C997.805 502.588 995.806 522.802 986.475 533.541C972.813 549.193 933.824 555.86 882.172 551.439C828.104 546.806 768.204 530.804 717.969 507.572C655.57 478.725 614.915 470.302 577.592 478.444C541.186 486.375 508.612 510.59 463.541 544.139C442.297 559.931 418.304 577.759 389.396 597.341C346.575 626.398 314.167 638.33 287.342 634.891C255.267 630.82 234.357 604.711 210.114 574.46C188.37 547.298 163.71 516.556 125.638 494.938C94.0634 477.04 63.9886 468.056 35.9133 468.056C31.1647 468.056 26.4993 468.337 21.834 468.828V470.934C53.4083 467.495 87.7318 476.058 124.221 496.763Z" fill="white"/>
<path fill-rule="evenodd" clip-rule="evenodd" d="M305.586 598.814C303.17 598.814 300.837 598.604 298.588 598.112C278.177 593.901 261.932 581.689 251.601 562.949C241.188 543.858 237.689 519.222 241.604 491.639C245.186 466.792 255.6 442.157 271.929 420.399C329.996 342.842 378.232 300.309 415.305 293.992C427.218 291.956 438.131 293.711 447.545 299.256C482.851 319.917 505.881 340.031 526.191 357.77L526.939 358.423L527.121 358.582C558.526 386.02 583.361 407.719 637.741 420.258C672.148 428.189 688.393 435.489 687.31 442.648C686.477 448.193 674.814 452.615 652.57 455.843C630.993 458.931 599.835 460.826 562.513 461.248C534.354 461.598 505.112 470.793 473.038 489.533C445.046 505.957 418.554 527.364 395.144 546.314C360.57 574.319 330.329 598.814 305.586 598.814ZM274.095 421.521C258.016 442.998 247.686 467.353 244.187 491.918C240.354 519.081 243.77 543.365 254.017 562.105C263.931 580.284 279.593 592.075 299.254 596.146C301.337 596.567 303.503 596.778 305.669 596.778C329.328 596.778 359.235 572.565 393.39 544.912L393.394 544.91C416.804 525.889 443.38 504.412 471.622 487.918C504.112 468.967 533.854 459.562 562.512 459.211C599.752 458.79 630.743 456.895 652.154 453.807C679.729 449.806 684.478 444.963 684.894 442.436C686.061 434.435 651.904 425.662 637.158 422.293C582.007 409.519 556.931 387.62 525.273 359.896L524.931 359.597C504.604 341.843 481.587 321.738 446.212 301.009C439.714 297.219 432.55 295.324 424.718 295.324C421.886 295.324 418.887 295.605 415.888 296.096C379.565 302.273 331.828 344.455 274.095 421.521Z" fill="white"/>
<path d="M1056.87 109.751C1036.63 115.997 1024.63 132.281 1007.89 154.881C999.804 165.83 990.557 178.253 978.977 191.448C941.321 234.052 903.415 218.4 840.6 192.501C808.192 179.096 767.787 162.461 717.885 150.389C645.322 132.842 596.919 133.755 569.927 153.197C545.184 171.024 537.353 203.942 545.184 256.793C552.015 302.625 592.837 337.929 666.483 361.793C735.88 384.252 818.023 390.639 860.761 392.535C935.073 395.693 1000.3 405.379 1054.79 421.171C1098.28 433.805 1135.02 450.369 1163.92 470.442C1173.42 477.04 1181.5 483.567 1188.25 489.884V486.796C1181.84 481.04 1174.42 475.004 1165.76 468.968C1136.6 448.684 1099.61 431.98 1055.79 419.276C1001.05 403.414 935.489 393.728 860.927 390.499C818.273 388.674 736.463 382.287 667.399 359.898C594.67 336.385 554.348 301.642 547.683 256.652C539.936 204.573 547.517 172.287 571.593 154.951C597.919 136.001 645.572 135.158 717.218 152.565C766.954 164.637 807.193 181.201 839.517 194.537C871.424 207.732 896.667 218.12 919.161 219.944C943.57 221.91 962.648 213.557 980.976 192.852C992.64 179.657 1001.89 167.164 1010.05 156.144C1026.46 133.895 1038.38 117.822 1057.79 111.856C1078.28 105.539 1106.02 110.874 1150.68 129.684C1164.26 135.439 1176.75 141.756 1188.25 148.424V145.757C1177.09 139.299 1164.92 133.263 1151.76 127.719C1106.36 108.628 1078.03 103.223 1056.87 109.751Z" fill="white"/>
<path d="M1105.94 175.446C1085.45 175.937 1068.12 184.149 1054.46 199.871C1042.04 214.119 1033.3 227.104 1025.46 238.474C1000.3 275.322 988.808 292.167 911.747 266.689C889.253 259.249 862.761 248.441 834.685 237C757.374 205.416 669.732 169.621 623.329 187.027C609.333 192.221 599.752 202.187 594.837 216.505C588.172 235.877 590.755 253.424 602.668 268.655C619.996 290.763 656.486 308.31 714.136 322.348C758.957 333.297 816.69 342.07 895.668 350.072C973.229 357.932 1053.54 378.848 1121.69 408.888C1147.1 420.118 1169.67 432.19 1188 444.192V441.385C1169.92 429.734 1147.93 418.083 1122.77 406.993C1054.37 376.813 973.729 355.827 895.834 347.966C816.94 339.965 759.373 331.191 714.719 320.242C657.652 306.345 621.663 289.009 604.667 267.391C593.171 252.722 590.671 235.807 597.086 216.997C601.918 203.1 610.749 193.905 624.162 188.922C669.566 171.937 756.624 207.522 833.436 238.895C861.511 250.406 888.087 261.215 910.664 268.655C948.736 281.218 972.146 284.025 988.974 277.919C1005.22 272.023 1014.55 258.407 1027.38 239.527C1035.13 228.157 1043.88 215.312 1056.21 201.135C1069.37 185.974 1086.03 178.043 1105.77 177.552C1133.6 176.92 1163.84 191.238 1187.92 206.469V203.802C1150.1 179.938 1122.77 175.025 1105.94 175.446Z" fill="white"/>
<path d="M1102.19 230.054C1087.53 232.159 1076.7 241.845 1069.95 258.83C1049.79 309.435 1002.64 305.996 971.396 303.75C954.4 302.487 942.071 301.645 940.571 309.856C938.655 320.244 945.403 328.245 962.065 334.913C976.894 340.879 998.221 345.511 1022.88 350.776C1074.53 361.865 1140.68 376.113 1188.08 412.681V409.803C1140.43 373.867 1074.78 359.759 1023.46 348.74C974.478 338.212 939.155 330.632 942.987 310.137C944.07 304.171 953.901 304.592 971.146 305.856C987.141 306.979 1006.97 308.453 1025.71 303.118C1047.87 296.802 1063.12 282.554 1072.28 259.532C1078.7 243.389 1088.95 234.125 1102.61 232.159C1128.35 228.369 1162.26 250.197 1188.17 271.113V268.165C1186.83 267.042 1185.42 265.99 1184 264.867C1150.34 238.757 1122.85 227.036 1102.19 230.054Z" fill="white"/>
<path d="M1136.93 283.676C1124.1 279.745 1113.27 280.517 1104.94 286.062C1098.11 290.554 1095.19 296.941 1096.19 305.012C1099.78 332.947 1150.34 374.077 1188.17 393.238V390.711C1171.42 382.078 1152.76 369.444 1136.77 355.758C1113.94 336.176 1100.36 318.067 1098.61 304.662C1097.69 297.432 1100.28 291.677 1106.44 287.606C1128.85 272.797 1165.76 298.766 1188.17 317.997V314.979C1183 310.557 1177.09 305.925 1170.84 301.503C1158.43 292.8 1147.01 286.764 1136.93 283.676Z" fill="white"/>
<path fill-rule="evenodd" clip-rule="evenodd" d="M900.608 305.364C900.896 305.536 901.056 305.632 901.083 305.647C910.997 311.894 914.496 317.018 911.497 320.878C908.164 325.019 897.417 326.633 883.255 326.633C863.844 326.633 837.851 323.615 815.024 319.755C759.457 310.42 706.472 294.558 673.315 277.362C635.992 257.99 623.329 237.004 636.742 216.65C640.324 211.175 646.322 207.666 654.487 206.122C680.813 201.209 730.382 216.439 801.695 251.533C851.81 276.096 895.59 302.354 900.608 305.364ZM878.506 324.387C901.583 324.878 907.748 321.579 909.331 319.614C912.08 316.245 905.582 311.051 899.583 307.331C897.417 305.998 734.131 207.314 665.067 207.314C661.401 207.314 658.069 207.595 654.987 208.157C647.572 209.56 642.157 212.719 638.908 217.632C632.243 227.739 632.326 237.986 639.241 248.163C645.489 257.428 657.403 266.623 674.564 275.536C707.472 292.592 760.123 308.384 815.441 317.649C839.184 321.649 861.594 324.036 878.506 324.387Z" fill="white"/>
<path fill-rule="evenodd" clip-rule="evenodd" d="M813.882 287.594C814.485 287.909 814.82 288.083 814.857 288.099C816.107 288.871 820.022 291.328 818.106 293.644C817.023 295.048 813.691 295.539 809.192 295.539C796.862 295.539 775.952 291.468 770.62 290.415C742.878 284.8 717.135 276.729 701.806 268.798C686.394 260.796 681.062 253.006 685.894 245.636C687.06 243.881 689.06 242.688 691.726 242.127C702.556 239.81 726.632 246.829 763.205 263.042C787.26 273.705 809.08 285.089 813.882 287.594ZM771.203 288.309C799.528 293.994 814.69 294.134 816.107 292.38C816.273 292.31 816.023 291.467 813.357 289.783C811.025 288.519 725.882 243.74 696.474 243.74C694.891 243.74 693.558 243.88 692.309 244.161C690.226 244.582 688.893 245.425 688.06 246.618C683.978 252.794 688.976 259.602 703.056 266.902C718.135 274.763 743.627 282.764 771.203 288.309Z" fill="white"/>
<path d="M113.391 463.987C144.882 474.866 174.956 485.323 195.284 485.323C200.782 485.323 205.531 484.551 209.446 482.867C214.945 480.481 218.444 476.199 219.943 470.233C223.526 456.196 205.781 442.65 178.872 422.155C152.213 401.871 115.723 374.147 83.4824 332.596C61.572 304.451 40.9945 286.343 21.8333 278.271V280.588C40.2447 288.659 60.1557 306.346 81.3163 333.719C113.807 375.551 150.38 403.345 177.122 423.699C203.365 443.702 220.777 456.898 217.444 469.742C216.028 475.146 213.029 478.796 208.197 480.902C190.952 488.552 153.712 475.638 114.307 461.951C88.3143 452.967 61.4053 443.632 38.0787 439.421C32.247 438.368 26.7486 437.666 21.75 437.315V439.421C26.582 439.772 31.9138 440.404 37.5788 441.456C60.7389 445.738 87.5645 455.003 113.391 463.987Z" fill="white"/>
<path d="M103.227 215.035C121.972 244.092 142.05 273.992 161.627 295.82C183.205 319.754 201.949 331.405 219.028 331.405C219.194 331.405 219.361 331.405 219.528 331.405C236.523 331.195 251.518 319.684 265.348 296.382C294.423 247.461 328.83 217.562 364.903 210.052C389.562 204.928 414.888 209.981 440.131 225.212C459.542 236.933 473.372 240.794 482.203 237.074C495.282 231.599 496.032 211.175 496.865 187.592C497.781 161.693 498.781 132.284 517.193 118.808C525.774 112.562 537.27 110.246 552.349 111.649C591.838 115.439 629.411 110.386 660.985 97.1908C690.976 84.6273 714.22 65.4662 728.132 41.743C741.379 19.2129 745.211 -6.19483 739.379 -31.6026C736.963 -42.2008 732.881 -52.5885 727.299 -62.7656H724.467C743.961 -28.0932 745.044 8.40409 725.966 40.8305C712.304 64.1326 689.477 82.9428 659.985 95.2957C628.827 108.351 591.671 113.264 552.682 109.544C537.104 108.07 524.607 110.597 515.61 117.194C496.365 131.232 495.365 161.131 494.366 187.451C493.616 209.42 492.866 230.195 481.12 235.108C473.122 238.477 460.209 234.617 441.548 223.387C415.638 207.806 389.646 202.612 364.236 207.876C327.413 215.596 292.423 245.847 263.098 295.329C249.686 317.859 235.44 328.949 219.528 329.159C219.361 329.159 219.194 329.159 219.028 329.159C182.788 329.159 143.049 272.237 105.393 213.842C82.3167 178.257 54.3247 153.691 21.834 140.637V142.953C53.325 155.937 80.6505 180.082 103.227 215.035Z" fill="white"/>
<path d="M134.551 124.913C148.963 124.913 161.626 123.158 172.04 119.579C195.783 111.437 207.613 94.8027 207.196 69.9565C206.78 45.6016 214.528 27.4933 230.856 14.649C271.095 -17.2159 357.737 -11.7413 449.544 -5.84559C463.04 -5.00334 477.036 -4.09091 490.782 -3.31886C504.195 -2.5468 516.525 -2.19586 527.855 -2.19586C579.59 -2.19586 608.915 -9.98663 615.33 -25.498C619.829 -36.4472 612.331 -49.7125 600.334 -62.627H597.085C609.415 -49.7827 617.246 -36.6577 612.997 -26.1297C605.666 -8.30214 564.678 -1.28342 491.032 -5.35428C477.286 -6.12633 463.29 -7.03877 449.794 -7.88101C357.487 -13.7767 270.262 -19.3215 229.19 13.1751C212.362 26.5107 204.364 45.1102 204.781 70.0969C205.197 93.9605 193.867 110.033 171.207 117.754C142.048 127.72 94.6453 123.158 40.9939 105.261C34.5791 103.155 28.2475 100.839 21.916 98.4524V100.769C27.9143 103.085 33.9959 105.261 40.0775 107.226C75.2341 118.877 107.891 124.913 134.551 124.913Z" fill="white"/>
<path d="M86.8148 58.0948C116.806 56.5507 142.216 43.2854 162.46 18.6497L165.792 14.5789C190.369 -15.3208 202.698 -30.3409 220.943 -36.5875C239.188 -42.8342 263.931 -40.5882 313.25 -36.026C319.248 -35.4645 325.663 -34.903 332.411 -34.2714C390.895 -29.0073 433.216 -27.1825 461.791 -28.867C489.367 -30.4813 505.029 -35.1838 511.027 -43.6764C514.693 -48.8703 514.526 -55.1871 511.527 -62.627H508.944C511.943 -55.4679 512.277 -49.502 508.861 -44.7292C503.363 -37.0788 487.95 -32.5167 461.624 -30.9726C433.133 -29.2881 390.978 -31.0428 332.661 -36.377C325.913 -37.0087 319.498 -37.5702 313.5 -38.1317C263.764 -42.764 238.855 -45.0802 219.943 -38.5528C201.032 -32.0254 188.536 -16.865 163.709 13.3857L160.377 17.4565C140.549 41.5307 115.806 54.5153 86.6481 55.9892C71.6524 56.7613 49.9086 54.5855 21.75 43.4959V45.8121C46.4929 55.4277 66.3206 58.2352 81.0664 58.2352C83.1491 58.2352 85.0653 58.165 86.8148 58.0948Z" fill="white"/>
<path d="M634.576 -10.9011C618.08 16.542 545.018 12.8221 544.185 12.7519C503.28 12.7519 465.291 10.2954 431.8 8.04938C381.981 4.75058 338.91 1.9431 307.086 8.89163C290.257 12.5414 277.178 18.788 267.18 27.9123C256.35 37.7385 249.019 51.0039 244.687 68.3401C230.274 126.315 192.535 133.263 162.127 138.808C143.799 142.177 127.97 145.055 122.722 158.811C117.973 171.375 123.471 196.361 136.884 222.471C151.214 250.476 170.708 272.163 189.036 280.446C194.951 283.113 200.866 284.446 206.448 284.446C217.111 284.446 227.192 279.673 236.023 270.339C249.436 256.161 260.349 240.72 270.929 225.77C290.674 197.835 307.669 173.761 334.078 168.357C350.323 165.058 369.235 169.129 391.728 180.99C421.553 196.642 442.214 201.555 454.96 196.01C470.789 189.132 472.372 167.865 474.038 145.265C476.287 114.944 478.62 83.5707 515.61 84.9744C524.107 85.2552 532.271 85.4658 540.186 85.4658C620.163 85.4658 672.065 69.5333 694.475 37.9491C712.137 13.173 707.638 -16.7267 700.807 -37.3617C697.558 -47.2581 693.475 -55.9613 689.893 -62.6992H687.144C690.81 -55.9613 695.058 -46.9071 698.391 -36.73C710.471 -0.0221364 701.723 23.5607 692.309 36.8963C668.149 70.8668 608.666 86.3782 515.693 82.939C497.948 82.3073 486.118 88.6242 479.537 102.311C473.788 114.172 472.622 129.964 471.539 145.265C469.956 167.234 468.373 187.939 453.794 194.256C441.881 199.45 422.053 194.537 392.978 179.306C369.818 167.164 350.323 162.952 333.412 166.462C306.003 172.077 288.674 196.502 268.68 224.857C258.183 239.737 247.269 255.108 233.94 269.145C220.944 282.832 206.198 285.99 190.036 278.691C172.208 270.619 153.046 249.353 138.967 221.769C126.054 196.502 120.389 171.515 124.888 159.583C129.72 146.95 144.132 144.283 162.46 140.984C177.789 138.176 195.118 135.018 210.613 125.051C228.525 113.541 240.438 95.1516 246.936 68.8314C255.017 36.1944 273.679 18.3669 307.502 10.9972C321.665 7.909 338.244 6.78601 356.655 6.78601C378.982 6.78601 404.225 8.4705 431.384 10.2252C464.957 12.401 502.947 14.9277 543.852 14.9277C543.852 14.9277 543.852 14.9277 543.935 14.9277C544.101 14.9277 562.929 15.9805 583.507 13.4538C611.499 10.0848 629.327 2.22385 636.658 -9.84833C644.573 -22.9733 639.491 -40.6605 621.496 -62.629H618.497C636.825 -40.9412 642.157 -23.5348 634.576 -10.9011Z" fill="white"/>
<path d="M640.99 14.5806C627.327 28.9689 586.006 34.9348 521.607 31.8466C472.705 29.5304 427.384 22.7223 426.968 22.6521C426.718 22.5819 399.059 18.4408 367.901 23.5645C349.49 26.5124 333.494 32.0571 320.248 40.0585C303.669 50.025 291.423 63.7817 283.925 80.9074C269.429 114.106 253.184 136.776 234.189 150.252C217.694 161.973 201.615 165.062 186.62 167.237C164.709 170.396 157.295 182.187 154.962 191.522C150.297 209.771 161.543 234.407 179.038 244.303C183.787 246.97 188.619 248.304 193.284 248.304C197.616 248.304 201.865 247.181 205.864 244.864C222.276 235.459 239.105 217.351 256.933 198.26C290.84 161.833 325.913 124.213 361.153 143.093C366.318 145.83 371.317 148.568 376.065 151.235C401.891 165.483 422.386 176.783 435.299 171.449C442.963 168.29 447.295 159.938 448.878 145.058C452.127 114.316 458.125 91.1547 476.87 78.0999C490.2 68.765 509.194 65.3258 535.02 67.4314C607.333 73.3973 654.986 62.5885 676.73 35.4261C694.141 13.6681 691.142 -14.6173 685.56 -34.5504C682.395 -45.8505 678.063 -55.8171 674.647 -62.7656H671.981C675.397 -55.8873 679.895 -45.7102 683.144 -34.0591C688.56 -14.5471 691.475 13.1066 674.647 34.2329C653.486 60.6935 606.583 71.1514 535.27 65.3258C508.778 63.15 489.2 66.7998 475.287 76.4856C455.959 90.0317 449.711 113.615 446.379 144.918C444.879 158.815 440.964 166.887 434.216 169.624C422.552 174.397 402.641 163.447 377.482 149.55C372.65 146.883 367.651 144.146 362.486 141.409C345.741 132.425 327.663 134.671 307.252 148.287C289.424 160.078 271.929 178.889 255.017 197.067C237.355 216.088 220.61 233.985 204.531 243.25C195.117 248.655 186.286 245.917 180.455 242.618C163.709 233.143 152.962 209.49 157.378 192.014C159.627 183.31 166.542 172.291 187.036 169.343C202.365 167.097 218.777 163.939 235.772 151.867C255.1 138.11 271.595 115.159 286.258 81.6092C293.589 64.8345 305.502 51.4288 321.581 41.743C334.494 33.9522 350.239 28.5478 368.234 25.5999C379.898 23.7049 391.061 23.0732 400.475 23.0732C415.804 23.0732 426.301 24.6875 426.468 24.6875C426.884 24.7577 472.371 31.5658 521.441 33.882C587.588 37.0404 628.493 31.0043 642.906 15.8439C657.152 0.964259 660.484 -19.1794 652.487 -42.3412C649.737 -50.2723 646.155 -57.291 642.989 -62.6954H640.157C643.406 -57.3612 647.238 -50.0618 650.071 -41.7797C655.486 -26.128 658.235 -3.59791 640.99 14.5806Z" fill="white"/>
<path fill-rule="evenodd" clip-rule="evenodd" d="M374.315 42.3729C383.23 38.7232 393.143 37.9511 402.307 40.2673C411.305 42.5133 418.053 47.2158 422.302 54.2345C435.298 75.3608 423.801 112.49 415.804 132.704C413.721 138.038 411.138 140.845 407.723 141.477L407.722 141.477C407.223 141.547 406.723 141.617 406.223 141.617C400.673 141.617 394.3 136.136 386.366 129.312L386.229 129.194C378.648 122.667 370.067 115.297 359.736 110.103C342.491 101.4 333.994 91.6443 334.493 80.9758C335.41 62.3762 364.318 46.5139 374.315 42.3729ZM407.223 139.441C409.639 138.95 411.721 136.564 413.471 132.072C431.882 85.608 425.551 63.9904 420.052 55.2872C416.054 48.83 409.805 44.4784 401.558 42.3727C398.309 41.5305 394.976 41.1094 391.561 41.1094C386.062 41.1094 380.564 42.1622 375.399 44.2678C365.735 48.2685 337.826 63.4991 336.993 81.0458C336.493 90.872 344.657 100.067 361.069 108.278C371.551 113.493 380.561 121.257 387.856 127.543L388.062 127.72L388.156 127.802C395.947 134.505 402.659 140.28 407.223 139.441Z" fill="white"/>
<path fill-rule="evenodd" clip-rule="evenodd" d="M378.899 74.9403C381.815 73.7471 385.064 73.4664 388.063 74.2385C390.979 75.0105 393.228 76.5546 394.728 78.941C398.893 85.679 395.311 97.2598 392.811 103.577C392.395 104.77 391.562 106.384 389.729 106.735C389.479 106.805 389.312 106.805 389.062 106.805C387 106.805 385.018 105.084 382.39 102.801L382.314 102.734C380.065 100.769 377.482 98.5232 374.4 96.9791C368.818 94.1716 366.069 90.943 366.236 87.3634C366.548 80.6553 377.32 75.6726 378.744 75.0138C378.84 74.9695 378.893 74.9448 378.899 74.9403ZM389.146 104.628C389.396 104.628 389.896 104.067 390.395 102.874C392.312 98.0308 396.31 86.099 392.561 79.8524C391.395 78.0275 389.729 76.8343 387.396 76.2728C386.48 76.0622 385.48 75.9219 384.564 75.9219C382.981 75.9219 381.481 76.2026 379.982 76.8343C377.732 77.8169 368.985 82.3791 368.735 87.5027C368.568 90.1699 370.901 92.7668 375.65 95.1531C378.982 96.8376 381.814 99.2942 384.064 101.259C384.177 101.355 384.292 101.452 384.408 101.55C386.179 103.046 388.286 104.826 389.146 104.628Z" fill="white"/>
<path d="M1040.46 62.2338C1008.63 71.5687 986.558 98.8013 974.978 143.16C969.646 163.654 956.316 176.569 935.406 181.552C896.25 190.957 833.601 169.339 789.864 131.228C754.791 100.767 740.711 67.2873 751.208 39.423C760.956 13.5942 763.705 -14.4807 759.456 -43.8891C758.54 -50.0655 757.29 -56.3824 755.79 -62.6992H753.208C754.791 -56.242 756.04 -49.9252 756.957 -43.6083C761.205 -14.4807 758.456 13.3134 748.876 38.8615C738.045 67.4978 752.375 101.679 788.114 132.772C808.942 150.88 835.101 166.111 861.843 175.656C880.838 182.464 899.166 185.903 915.328 185.903C922.826 185.903 929.824 185.131 936.156 183.657C957.649 178.534 971.979 164.707 977.477 143.651C988.89 100.065 1010.3 73.3936 1041.29 64.2692C1085.45 51.2846 1142.01 75.7097 1188.17 103.995V101.398C1141.68 73.1128 1085.11 49.179 1040.46 62.2338Z" fill="white"/>
<path d="M1055.37 6.57545C1028.46 11.1376 1007.97 26.2278 994.555 51.2846C975.977 85.9571 952.401 110.242 924.409 123.577C894.417 137.825 867.758 135.439 850.68 130.947C830.019 125.472 812.191 113.962 800.444 98.5206C788.281 82.5881 783.782 63.7779 787.864 45.5995C796.279 7.83882 799.444 -28.5883 797.445 -62.6992H794.946C796.945 -28.7287 793.779 7.55807 785.448 45.1784C781.283 63.9183 785.865 83.2198 798.361 99.5734C810.441 115.436 828.769 127.227 850.013 132.842C858.927 135.228 868.091 136.351 877.255 136.351C893.667 136.351 910.246 132.631 925.658 125.332C954.15 111.786 978.06 87.1502 996.888 52.0567C1009.97 27.6316 1029.8 13.0327 1055.87 8.54069C1077.03 4.96114 1102.44 8.18975 1129.35 18.0159C1150.43 25.6663 1171.75 37.177 1188.17 49.7405V46.933C1154.26 21.8061 1099.61 -0.934573 1055.37 6.57545Z" fill="white"/>
<path d="M1163.42 3.76796C1135.02 1.52198 1100.69 -7.74272 1069.2 -21.7801C1032.71 -38.0635 1002.22 -13.7788 966.98 14.296C940.155 35.7031 909.747 59.9176 872.091 68.691C858.845 71.7793 848.597 70.165 841.516 64.0587C817.44 43.0727 833.602 -25.6404 844.599 -62.6992H842.016C838.684 -51.3991 834.851 -37.2915 831.852 -22.5522C822.605 23.28 825.271 52.8989 839.767 65.5326C845.015 70.0948 851.763 72.3408 859.928 72.3408C863.926 72.3408 868.175 71.7793 872.841 70.7265C910.996 61.8829 941.738 37.4578 968.73 15.8401C1003.3 -11.6732 1033.13 -35.4666 1068.03 -19.8851C1100.19 -5.49673 1134.02 3.62759 1163.17 5.87358C1172.26 6.57545 1180.59 6.57545 1188.17 5.87358V3.76796C1180.75 4.46983 1172.42 4.46983 1163.42 3.76796Z" fill="white"/>
<path fill-rule="evenodd" clip-rule="evenodd" d="M670.731 121.334C670.065 115.719 679.146 109.121 697.64 101.611C709.804 96.6978 724.3 98.242 734.38 105.612C742.378 111.437 751.042 119.719 746.71 126.598C743.377 131.932 732.797 134.739 718.718 134.739C709.304 134.739 698.307 133.476 686.81 130.879C676.397 128.563 671.148 125.404 670.731 121.334ZM687.476 128.845C714.052 134.881 739.628 133.407 744.544 125.616C747.293 121.124 743.294 114.807 732.797 107.227C726.965 103.086 719.717 100.91 712.386 100.91C707.721 100.91 703.055 101.752 698.723 103.507C681.811 110.385 672.731 116.632 673.231 121.124C673.564 124.142 678.479 126.809 687.476 128.845Z" fill="white"/>
</g>
</g>
</g>
<defs>
<filter id="filter0_d_823_623" x="0" y="0" width="1249" height="400" filterUnits="userSpaceOnUse" color-interpolation-filters="sRGB">
<feFlood flood-opacity="0" result="BackgroundImageFix"/>
<feColorMatrix in="SourceAlpha" type="matrix" values="0 0 0 0 0 0 0 0 0 0 0 0 0 0 0 0 0 0 127 0" result="hardAlpha"/>
<feOffset dx="6" dy="6"/>
<feGaussianBlur stdDeviation="27"/>
<feColorMatrix type="matrix" values="0 0 0 0 0 0 0 0 0 0 0 0 0 0 0 0 0 0 0.05 0"/>
<feBlend mode="normal" in2="BackgroundImageFix" result="effect1_dropShadow_823_623"/>
<feBlend mode="normal" in="SourceGraphic" in2="effect1_dropShadow_823_623" result="shape"/>
</filter>
</defs>
</svg>
