<svg width="30" height="34" viewBox="0 0 30 34" fill="none" xmlns="http://www.w3.org/2000/svg">
<path d="M26.4827 9.87519H27.5573C27.6998 9.87675 27.8394 9.8356 27.9582 9.75705C28.077 9.6785 28.1695 9.56615 28.2238 9.4345C28.2781 9.30285 28.2917 9.15794 28.2629 9.01847C28.2341 8.879 28.1641 8.75138 28.062 8.65206L21.0023 1.59238C20.9027 1.49238 20.7756 1.42424 20.6371 1.3966C20.4987 1.36896 20.3552 1.38307 20.2248 1.43715C20.0943 1.49122 19.9829 1.58281 19.9047 1.7003C19.8264 1.8178 19.7848 1.95589 19.7852 2.09706V3.17175C19.7852 4.94859 20.4906 6.65273 21.7464 7.9097C23.0023 9.16667 24.7058 9.87362 26.4827 9.87519Z" fill="#4880FF"/>
<path d="M26.4827 12.25C24.076 12.2484 21.7684 11.2913 20.0671 9.5889C18.3659 7.88653 17.4102 5.57829 17.4102 3.17157C17.4102 2.80382 17.3377 2.43968 17.1968 2.1C17.0559 1.76032 16.8494 1.45176 16.589 1.192C16.3287 0.932236 16.0197 0.726366 15.6798 0.586175C15.3398 0.445985 14.9755 0.374226 14.6077 0.375006H7.48273C5.70487 0.375006 3.99983 1.08126 2.74269 2.3384C1.48555 3.59554 0.779297 5.30058 0.779297 7.07844V26.9216C0.779297 28.6994 1.48555 30.4045 2.74269 31.6616C3.99983 32.9188 5.70487 33.625 7.48273 33.625H22.5818C24.3586 33.6234 26.0622 32.9165 27.318 31.6595C28.5739 30.4025 29.2793 28.6984 29.2793 26.9216V15.0466C29.2793 14.3049 28.9847 13.5936 28.4602 13.0691C27.9357 12.5446 27.2244 12.25 26.4827 12.25ZM10.2496 7.50001C10.9542 7.50001 11.643 7.70894 12.2288 8.1004C12.8147 8.49185 13.2713 9.04823 13.5409 9.6992C13.8106 10.3502 13.8811 11.0665 13.7437 11.7575C13.6062 12.4486 13.2669 13.0834 12.7687 13.5816C12.2705 14.0798 11.6357 14.4191 10.9446 14.5566C10.2536 14.694 9.53726 14.6235 8.8863 14.3538C8.23534 14.0842 7.67895 13.6276 7.2875 13.0417C6.89605 12.4559 6.68711 11.7671 6.68711 11.0625C6.68711 10.1177 7.06244 9.21154 7.73054 8.54344C8.39864 7.87534 9.30478 7.50001 10.2496 7.50001ZM24.4996 23.3353C24.4996 24.1746 24.1662 24.9796 23.5727 25.5731C22.9792 26.1666 22.1742 26.5 21.3349 26.5H7.0018C6.87137 26.5184 6.73852 26.4929 6.62416 26.4276C6.50981 26.3622 6.42043 26.2607 6.37011 26.1389C6.31979 26.0172 6.31137 25.8822 6.34618 25.7552C6.381 25.6281 6.45707 25.5163 6.56242 25.4372L13.0402 18.9594C13.2451 18.7549 13.5227 18.64 13.8121 18.64C14.1015 18.64 14.3792 18.7549 14.584 18.9594L16.6027 20.9781C16.8076 21.1826 17.0852 21.2975 17.3746 21.2975C17.664 21.2975 17.9417 21.1826 18.1465 20.9781L22.6352 16.4894C22.788 16.3369 22.9826 16.233 23.1943 16.191C23.4061 16.1489 23.6255 16.1705 23.825 16.2531C24.0245 16.3357 24.195 16.4755 24.3151 16.655C24.4351 16.8344 24.4994 17.0454 24.4996 17.2613V23.3353Z" fill="#4880FF"/>
</svg>
