<svg width="22" height="22" viewBox="0 0 22 22" fill="none" xmlns="http://www.w3.org/2000/svg">
<path d="M10.083 15.5833H11.9163V10.0833H10.083V15.5833ZM10.9997 8.25001C11.2594 8.25001 11.4773 8.16201 11.6533 7.98601C11.8293 7.81001 11.917 7.59245 11.9163 7.33334C11.9157 7.07423 11.8277 6.85668 11.6523 6.68068C11.477 6.50468 11.2594 6.41668 10.9997 6.41668C10.74 6.41668 10.5224 6.50468 10.347 6.68068C10.1716 6.85668 10.0836 7.07423 10.083 7.33334C10.0824 7.59245 10.1704 7.81032 10.347 7.98693C10.5236 8.16354 10.7412 8.25123 10.9997 8.25001ZM10.9997 20.1667C9.73162 20.1667 8.53995 19.9259 7.42468 19.4443C6.3094 18.9628 5.33926 18.3098 4.51426 17.4854C3.68926 16.661 3.03629 15.6909 2.55534 14.575C2.0744 13.4591 1.83362 12.2675 1.83301 11C1.8324 9.73257 2.07318 8.5409 2.55534 7.42501C3.03751 6.30912 3.69048 5.33898 4.51426 4.51459C5.33804 3.6902 6.30818 3.03723 7.42468 2.55568C8.54118 2.07412 9.73284 1.83334 10.9997 1.83334C12.2665 1.83334 13.4582 2.07412 14.5747 2.55568C15.6912 3.03723 16.6613 3.6902 17.4851 4.51459C18.3089 5.33898 18.9621 6.30912 19.4449 7.42501C19.9277 8.5409 20.1682 9.73257 20.1663 11C20.1645 12.2675 19.9237 13.4591 19.444 14.575C18.9643 15.6909 18.3113 16.661 17.4851 17.4854C16.6589 18.3098 15.6887 18.9631 14.5747 19.4453C13.4606 19.9274 12.269 20.1679 10.9997 20.1667ZM10.9997 18.3333C13.0469 18.3333 14.7809 17.6229 16.2018 16.2021C17.6226 14.7813 18.333 13.0472 18.333 11C18.333 8.95279 17.6226 7.21876 16.2018 5.79793C14.7809 4.37709 13.0469 3.66668 10.9997 3.66668C8.95245 3.66668 7.21843 4.37709 5.79759 5.79793C4.37676 7.21876 3.66634 8.95279 3.66634 11C3.66634 13.0472 4.37676 14.7813 5.79759 16.2021C7.21843 17.6229 8.95245 18.3333 10.9997 18.3333Z" fill="#5A8CFF"/>
</svg>
