<svg width="32" height="32" viewBox="0 0 32 32" fill="none" xmlns="http://www.w3.org/2000/svg">
<path fill-rule="evenodd" clip-rule="evenodd" d="M15.999 8H26.6657V10.6667H15.999V8ZM5.33301 21.3348H15.9997V24.0015H5.33301V21.3348ZM26.6663 14.6652H5.33301V17.3318H26.6663V14.6652Z" fill="#4880FF"/>
<path d="M26.6657 8H26.9157V7.75H26.6657V8ZM15.999 8V7.75H15.749V8H15.999ZM26.6657 10.6667V10.9167H26.9157V10.6667H26.6657ZM15.999 10.6667H15.749V10.9167H15.999V10.6667ZM15.9997 21.3348H16.2497V21.0848H15.9997V21.3348ZM5.33301 21.3348V21.0848H5.08301V21.3348H5.33301ZM15.9997 24.0015V24.2515H16.2497V24.0015H15.9997ZM5.33301 24.0015H5.08301V24.2515H5.33301V24.0015ZM5.33301 14.6652V14.4152H5.08301V14.6652H5.33301ZM26.6663 14.6652H26.9163V14.4152H26.6663V14.6652ZM5.33301 17.3318H5.08301V17.5818H5.33301V17.3318ZM26.6663 17.3318V17.5818H26.9163V17.3318H26.6663ZM26.6657 7.75H15.999V8.25H26.6657V7.75ZM26.9157 10.6667V8H26.4157V10.6667H26.9157ZM15.999 10.9167H26.6657V10.4167H15.999V10.9167ZM15.749 8V10.6667H16.249V8H15.749ZM15.9997 21.0848H5.33301V21.5848H15.9997V21.0848ZM16.2497 24.0015V21.3348H15.7497V24.0015H16.2497ZM5.33301 24.2515H15.9997V23.7515H5.33301V24.2515ZM5.08301 21.3348V24.0015H5.58301V21.3348H5.08301ZM5.33301 14.9152H26.6663V14.4152H5.33301V14.9152ZM5.58301 17.3318V14.6652H5.08301V17.3318H5.58301ZM26.6663 17.0818H5.33301V17.5818H26.6663V17.0818ZM26.4163 14.6652V17.3318H26.9163V14.6652H26.4163Z" fill="#4880FF"/>
</svg>
