<svg width="162" height="43" viewBox="0 0 162 43" fill="none" xmlns="http://www.w3.org/2000/svg">
<path fill-rule="evenodd" clip-rule="evenodd" d="M14 19H23.3333V21.3333H14V19ZM4.66699 30.668H14.0003V33.0013H4.66699V30.668ZM23.3337 24.832H4.66699V27.1654H23.3337V24.832Z" fill="#202224"/>
<path d="M23.3333 19H23.5833V18.75H23.3333V19ZM14 19V18.75H13.75V19H14ZM23.3333 21.3333V21.5833H23.5833V21.3333H23.3333ZM14 21.3333H13.75V21.5833H14V21.3333ZM14.0003 30.668H14.2503V30.418H14.0003V30.668ZM4.66699 30.668V30.418H4.41699V30.668H4.66699ZM14.0003 33.0013V33.2513H14.2503V33.0013H14.0003ZM4.66699 33.0013H4.41699V33.2513H4.66699V33.0013ZM4.66699 24.832V24.582H4.41699V24.832H4.66699ZM23.3337 24.832H23.5837V24.582H23.3337V24.832ZM4.66699 27.1654H4.41699V27.4154H4.66699V27.1654ZM23.3337 27.1654V27.4154H23.5837V27.1654H23.3337ZM23.3333 18.75H14V19.25H23.3333V18.75ZM23.5833 21.3333V19H23.0833V21.3333H23.5833ZM14 21.5833H23.3333V21.0833H14V21.5833ZM13.75 19V21.3333H14.25V19H13.75ZM14.0003 30.418H4.66699V30.918H14.0003V30.418ZM14.2503 33.0013V30.668H13.7503V33.0013H14.2503ZM4.66699 33.2513H14.0003V32.7513H4.66699V33.2513ZM4.41699 30.668V33.0013H4.91699V30.668H4.41699ZM4.66699 25.082H23.3337V24.582H4.66699V25.082ZM4.91699 27.1654V24.832H4.41699V27.1654H4.91699ZM23.3337 26.9154H4.66699V27.4154H23.3337V26.9154ZM23.0837 24.832V27.1654H23.5837V24.832H23.0837Z" fill="white"/>
<path d="M44.775 34V16.375H52.85C54.7333 16.375 56.1833 16.7833 57.2 17.6C58.2333 18.4167 58.75 19.5333 58.75 20.95C58.75 21.8833 58.5167 22.6917 58.05 23.375C57.5833 24.0417 56.9333 24.5417 56.1 24.875C57.1 25.1583 57.8667 25.6583 58.4 26.375C58.95 27.0917 59.225 27.975 59.225 29.025C59.225 30.5917 58.675 31.8167 57.575 32.7C56.4917 33.5667 55.0083 34 53.125 34H44.775ZM48.475 23.625H52.175C54.075 23.625 55.025 22.8917 55.025 21.425C55.025 19.975 54.075 19.25 52.175 19.25H48.475V23.625ZM48.475 31.125H52.6C53.6 31.125 54.3333 30.9333 54.8 30.55C55.2667 30.1667 55.5 29.5833 55.5 28.8C55.5 28.0333 55.2667 27.4583 54.8 27.075C54.3333 26.6917 53.6 26.5 52.6 26.5H48.475V31.125Z" fill="#4880FF"/>
<path d="M73.844 28.202C74.0693 28.202 74.2427 28.306 74.364 28.514C74.5027 28.722 74.572 29.008 74.572 29.372C74.572 30.0653 74.4073 30.6027 74.078 30.984C73.3327 31.9027 72.518 32.6567 71.634 33.246C70.75 33.8353 69.736 34.13 68.592 34.13C65.056 34.13 63.288 31.6427 63.288 26.668C63.288 25.9053 63.314 25.134 63.366 24.354H62.352C61.832 24.354 61.4767 24.2587 61.286 24.068C61.1127 23.8773 61.026 23.574 61.026 23.158C61.026 22.1873 61.416 21.702 62.196 21.702H63.678C63.9727 19.7953 64.4233 18.0533 65.03 16.476C65.6367 14.8987 66.3647 13.642 67.214 12.706C68.0807 11.77 69.008 11.302 69.996 11.302C70.724 11.302 71.296 11.6227 71.712 12.264C72.128 12.9053 72.336 13.7113 72.336 14.682C72.336 17.3687 71.2093 19.7087 68.956 21.702H71.868C72.1453 21.702 72.3447 21.7627 72.466 21.884C72.5873 22.0053 72.648 22.2307 72.648 22.56C72.648 23.756 71.6687 24.354 69.71 24.354H66.538C66.5033 25.2207 66.486 25.8967 66.486 26.382C66.486 28.1847 66.694 29.45 67.11 30.178C67.5433 30.906 68.2193 31.27 69.138 31.27C69.8833 31.27 70.542 31.0447 71.114 30.594C71.686 30.1433 72.362 29.4673 73.142 28.566C73.35 28.3233 73.584 28.202 73.844 28.202ZM69.294 13.798C69.034 13.798 68.7393 14.1273 68.41 14.786C68.098 15.4273 67.7947 16.3287 67.5 17.49C67.2227 18.634 66.9887 19.908 66.798 21.312C67.8207 20.428 68.5833 19.44 69.086 18.348C69.606 17.2387 69.866 16.2333 69.866 15.332C69.866 14.3093 69.6753 13.798 69.294 13.798ZM84.051 28.202C84.2764 28.202 84.4497 28.306 84.571 28.514C84.7097 28.722 84.779 29.008 84.779 29.372C84.779 30.0653 84.6144 30.6027 84.285 30.984C83.6437 31.764 82.7337 32.4833 81.555 33.142C80.3937 33.8007 79.1457 34.13 77.811 34.13C75.991 34.13 74.5784 33.636 73.573 32.648C72.5677 31.66 72.065 30.308 72.065 28.592C72.065 27.396 72.3164 26.2867 72.819 25.264C73.3217 24.224 74.015 23.4007 74.899 22.794C75.8004 22.1873 76.8144 21.884 77.941 21.884C78.9464 21.884 79.7524 22.1873 80.359 22.794C80.9657 23.3833 81.269 24.1893 81.269 25.212C81.269 26.408 80.8357 27.4393 79.969 28.306C79.1197 29.1553 77.6724 29.8313 75.627 30.334C76.0604 31.1313 76.8837 31.53 78.097 31.53C78.877 31.53 79.761 31.2613 80.749 30.724C81.7544 30.1693 82.621 29.45 83.349 28.566C83.557 28.3233 83.791 28.202 84.051 28.202ZM77.499 24.432C76.8577 24.432 76.3117 24.8047 75.861 25.55C75.4277 26.2953 75.211 27.1967 75.211 28.254V28.306C76.2337 28.0633 77.0397 27.6993 77.629 27.214C78.2184 26.7287 78.513 26.1653 78.513 25.524C78.513 25.1947 78.4177 24.9347 78.227 24.744C78.0537 24.536 77.811 24.432 77.499 24.432ZM85.7331 34.13C84.6584 34.13 83.8004 33.74 83.1591 32.96C82.5178 32.18 82.1971 31.1573 82.1971 29.892C82.1971 28.5053 82.5178 27.1967 83.1591 25.966C83.8004 24.718 84.6498 23.7213 85.7071 22.976C86.7818 22.2133 87.9171 21.832 89.1131 21.832C89.4944 21.832 89.7458 21.91 89.8671 22.066C90.0058 22.2047 90.1184 22.4647 90.2051 22.846C90.5691 22.7767 90.9504 22.742 91.3491 22.742C92.1984 22.742 92.6231 23.0453 92.6231 23.652C92.6231 24.016 92.4931 24.8827 92.2331 26.252C91.8344 28.2453 91.6351 29.632 91.6351 30.412C91.6351 30.672 91.6958 30.88 91.8171 31.036C91.9558 31.192 92.1291 31.27 92.3371 31.27C92.6664 31.27 93.0651 31.062 93.5331 30.646C94.0011 30.2127 94.6338 29.5193 95.4311 28.566C95.6391 28.3233 95.8731 28.202 96.1331 28.202C96.3584 28.202 96.5318 28.306 96.6531 28.514C96.7918 28.722 96.8611 29.008 96.8611 29.372C96.8611 30.0653 96.6964 30.6027 96.3671 30.984C95.6564 31.868 94.9024 32.6133 94.1051 33.22C93.3078 33.8267 92.5364 34.13 91.7911 34.13C91.2191 34.13 90.6904 33.9393 90.2051 33.558C89.7371 33.1593 89.3818 32.622 89.1391 31.946C88.2378 33.402 87.1024 34.13 85.7331 34.13ZM86.6691 31.504C87.0504 31.504 87.4144 31.2787 87.7611 30.828C88.1078 30.3773 88.3591 29.7793 88.5151 29.034L89.4771 24.25C88.7491 24.2673 88.0731 24.5447 87.4491 25.082C86.8424 25.602 86.3571 26.2953 85.9931 27.162C85.6291 28.0287 85.4471 28.9473 85.4471 29.918C85.4471 30.4553 85.5511 30.854 85.7591 31.114C85.9844 31.374 86.2878 31.504 86.6691 31.504ZM96.594 34.13C95.9353 34.13 95.4673 33.7833 95.19 33.09C94.93 32.3967 94.8 31.2873 94.8 29.762C94.8 27.5087 95.1207 25.368 95.762 23.34C95.918 22.8373 96.1693 22.4733 96.516 22.248C96.88 22.0053 97.3827 21.884 98.024 21.884C98.3707 21.884 98.6133 21.9273 98.752 22.014C98.8907 22.1007 98.96 22.2653 98.96 22.508C98.96 22.7853 98.83 23.4093 98.57 24.38C98.3967 25.0733 98.258 25.68 98.154 26.2C98.05 26.7027 97.9633 27.3353 97.894 28.098C98.362 26.746 98.9167 25.602 99.558 24.666C100.217 23.73 100.884 23.0367 101.56 22.586C102.253 22.118 102.903 21.884 103.51 21.884C104.117 21.884 104.541 22.0227 104.784 22.3C105.044 22.5773 105.174 23.002 105.174 23.574C105.174 24.1287 105.009 25.134 104.68 26.59C104.541 27.214 104.446 27.682 104.394 27.994C104.966 26.538 105.599 25.3507 106.292 24.432C107.003 23.5133 107.696 22.8633 108.372 22.482C109.048 22.0833 109.672 21.884 110.244 21.884C110.799 21.884 111.215 22.0313 111.492 22.326C111.787 22.6033 111.934 23.0193 111.934 23.574C111.934 24.0247 111.839 24.874 111.648 26.122C111.475 27.1793 111.336 28.1847 111.232 29.138C111.128 30.074 111.076 31.1227 111.076 32.284C111.076 32.9427 110.937 33.4193 110.66 33.714C110.4 33.9913 109.967 34.13 109.36 34.13C108.788 34.13 108.372 33.9827 108.112 33.688C107.852 33.3933 107.722 32.9513 107.722 32.362C107.722 31.6687 107.843 30.5247 108.086 28.93C108.294 27.5433 108.398 26.6593 108.398 26.278C108.398 26.0007 108.303 25.862 108.112 25.862C107.887 25.862 107.566 26.1567 107.15 26.746C106.734 27.318 106.318 28.0807 105.902 29.034C105.486 29.9873 105.148 30.9927 104.888 32.05C104.697 32.882 104.472 33.4367 104.212 33.714C103.969 33.9913 103.571 34.13 103.016 34.13C102.444 34.13 102.011 33.8613 101.716 33.324C101.439 32.7693 101.3 32.102 101.3 31.322C101.3 30.6633 101.387 29.71 101.56 28.462C101.699 27.3527 101.768 26.6247 101.768 26.278C101.768 26.0007 101.673 25.862 101.482 25.862C101.222 25.862 100.893 26.174 100.494 26.798C100.095 27.422 99.7053 28.2193 99.324 29.19C98.96 30.1607 98.6653 31.114 98.44 32.05C98.2493 32.8647 98.024 33.4193 97.764 33.714C97.5213 33.9913 97.1313 34.13 96.594 34.13Z" fill="#202224"/>
</svg>
