<svg width="265" height="50" viewBox="0 0 265 50" fill="none" xmlns="http://www.w3.org/2000/svg">
<path fill-rule="evenodd" clip-rule="evenodd" d="M16.0002 22H26.6668V24.6667H16.0002V22ZM5.3335 35.334H16.0002V38.0007H5.3335V35.334ZM26.6668 28.666H5.3335V31.3327H26.6668V28.666Z" fill="#202224"/>
<path d="M26.6668 22H26.9168V21.75H26.6668V22ZM16.0002 22V21.75H15.7502V22H16.0002ZM26.6668 24.6667V24.9167H26.9168V24.6667H26.6668ZM16.0002 24.6667H15.7502V24.9167H16.0002V24.6667ZM16.0002 35.334H16.2502V35.084H16.0002V35.334ZM5.3335 35.334V35.084H5.0835V35.334H5.3335ZM16.0002 38.0007V38.2507H16.2502V38.0007H16.0002ZM5.3335 38.0007H5.0835V38.2507H5.3335V38.0007ZM5.3335 28.666V28.416H5.0835V28.666H5.3335ZM26.6668 28.666H26.9168V28.416H26.6668V28.666ZM5.3335 31.3327H5.0835V31.5827H5.3335V31.3327ZM26.6668 31.3327V31.5827H26.9168V31.3327H26.6668ZM26.6668 21.75H16.0002V22.25H26.6668V21.75ZM26.9168 24.6667V22H26.4168V24.6667H26.9168ZM16.0002 24.9167H26.6668V24.4167H16.0002V24.9167ZM15.7502 22V24.6667H16.2502V22H15.7502ZM16.0002 35.084H5.3335V35.584H16.0002V35.084ZM16.2502 38.0007V35.334H15.7502V38.0007H16.2502ZM5.3335 38.2507H16.0002V37.7507H5.3335V38.2507ZM5.0835 35.334V38.0007H5.5835V35.334H5.0835ZM5.3335 28.916H26.6668V28.416H5.3335V28.916ZM5.5835 31.3327V28.666H5.0835V31.3327H5.5835ZM26.6668 31.0827H5.3335V31.5827H26.6668V31.0827ZM26.4168 28.666V31.3327H26.9168V28.666H26.4168Z" fill="white"/>
<path d="M49.13 39V17.85H58.82C61.08 17.85 62.82 18.34 64.04 19.32C65.28 20.3 65.9 21.64 65.9 23.34C65.9 24.46 65.62 25.43 65.06 26.25C64.5 27.05 63.72 27.65 62.72 28.05C63.92 28.39 64.84 28.99 65.48 29.85C66.14 30.71 66.47 31.77 66.47 33.03C66.47 34.91 65.81 36.38 64.49 37.44C63.19 38.48 61.41 39 59.15 39H49.13ZM53.57 26.55H58.01C60.29 26.55 61.43 25.67 61.43 23.91C61.43 22.17 60.29 21.3 58.01 21.3H53.57V26.55ZM53.57 35.55H58.52C59.72 35.55 60.6 35.32 61.16 34.86C61.72 34.4 62 33.7 62 32.76C62 31.84 61.72 31.15 61.16 30.69C60.6 30.23 59.72 30 58.52 30H53.57V35.55ZM74.5794 39.33C73.4794 39.33 72.5094 39.12 71.6694 38.7C70.8294 38.28 70.1594 37.71 69.6594 36.99C69.1794 36.27 68.9394 35.46 68.9394 34.56C68.9394 33.5 69.2194 32.65 69.7794 32.01C70.3394 31.37 71.2494 30.92 72.5094 30.66C73.7694 30.38 75.4394 30.24 77.5194 30.24H78.5994V29.73C78.5994 28.85 78.3994 28.23 77.9994 27.87C77.5994 27.49 76.9194 27.3 75.9594 27.3C75.1594 27.3 74.3094 27.43 73.4094 27.69C72.5294 27.93 71.6494 28.3 70.7694 28.8L69.5394 25.77C70.0594 25.43 70.6894 25.12 71.4294 24.84C72.1894 24.56 72.9794 24.35 73.7994 24.21C74.6194 24.05 75.3994 23.97 76.1394 23.97C78.4194 23.97 80.1194 24.49 81.2394 25.53C82.3594 26.55 82.9194 28.14 82.9194 30.3V39H78.6894V36.78C78.3894 37.56 77.8794 38.18 77.1594 38.64C76.4594 39.1 75.5994 39.33 74.5794 39.33ZM75.5994 36.3C76.4394 36.3 77.1494 36.01 77.7294 35.43C78.3094 34.85 78.5994 34.1 78.5994 33.18V32.58H77.5494C76.0094 32.58 74.9194 32.72 74.2794 33C73.6394 33.26 73.3194 33.72 73.3194 34.38C73.3194 34.94 73.5094 35.4 73.8894 35.76C74.2894 36.12 74.8594 36.3 75.5994 36.3ZM91.7286 39.33C89.8486 39.33 88.4586 38.81 87.5586 37.77C86.6786 36.73 86.2386 35.17 86.2386 33.09V24.27H90.7686V33.21C90.7686 34.95 91.5186 35.82 93.0186 35.82C93.8786 35.82 94.5786 35.52 95.1186 34.92C95.6786 34.3 95.9586 33.49 95.9586 32.49V24.27H100.489V39H96.0786V36.99C95.0986 38.55 93.6486 39.33 91.7286 39.33ZM104.054 39V24.27H108.494V26.4C108.934 25.64 109.534 25.05 110.294 24.63C111.074 24.19 111.974 23.97 112.994 23.97C114.034 23.97 114.914 24.2 115.634 24.66C116.374 25.12 116.934 25.82 117.314 26.76C117.774 25.88 118.434 25.2 119.294 24.72C120.174 24.22 121.144 23.97 122.204 23.97C123.884 23.97 125.134 24.48 125.954 25.5C126.774 26.5 127.184 28.05 127.184 30.15V39H122.654V30.3C122.654 29.32 122.494 28.61 122.174 28.17C121.874 27.71 121.354 27.48 120.614 27.48C119.754 27.48 119.084 27.78 118.604 28.38C118.124 28.98 117.884 29.83 117.884 30.93V39H113.354V30.3C113.354 29.32 113.194 28.61 112.874 28.17C112.554 27.71 112.034 27.48 111.314 27.48C110.454 27.48 109.784 27.78 109.304 28.38C108.824 28.98 108.584 29.83 108.584 30.93V39H104.054ZM135.634 39.33C134.534 39.33 133.564 39.12 132.724 38.7C131.884 38.28 131.214 37.71 130.714 36.99C130.234 36.27 129.994 35.46 129.994 34.56C129.994 33.5 130.274 32.65 130.834 32.01C131.394 31.37 132.304 30.92 133.564 30.66C134.824 30.38 136.494 30.24 138.574 30.24H139.654V29.73C139.654 28.85 139.454 28.23 139.054 27.87C138.654 27.49 137.974 27.3 137.014 27.3C136.214 27.3 135.364 27.43 134.464 27.69C133.584 27.93 132.704 28.3 131.824 28.8L130.594 25.77C131.114 25.43 131.744 25.12 132.484 24.84C133.244 24.56 134.034 24.35 134.854 24.21C135.674 24.05 136.454 23.97 137.194 23.97C139.474 23.97 141.174 24.49 142.294 25.53C143.414 26.55 143.974 28.14 143.974 30.3V39H139.744V36.78C139.444 37.56 138.934 38.18 138.214 38.64C137.514 39.1 136.654 39.33 135.634 39.33ZM136.654 36.3C137.494 36.3 138.204 36.01 138.784 35.43C139.364 34.85 139.654 34.1 139.654 33.18V32.58H138.604C137.064 32.58 135.974 32.72 135.334 33C134.694 33.26 134.374 33.72 134.374 34.38C134.374 34.94 134.564 35.4 134.944 35.76C135.344 36.12 135.914 36.3 136.654 36.3ZM147.353 39V24.27H151.793V26.43C152.293 25.63 152.963 25.02 153.803 24.6C154.643 24.18 155.583 23.97 156.623 23.97C158.363 23.97 159.663 24.48 160.523 25.5C161.383 26.5 161.813 28.05 161.813 30.15V39H157.283V30.36C157.283 29.34 157.093 28.61 156.713 28.17C156.333 27.71 155.773 27.48 155.033 27.48C154.073 27.48 153.303 27.78 152.723 28.38C152.163 28.98 151.883 29.78 151.883 30.78V39H147.353Z" fill="#4880FF"/>
<path d="M177.59 39.15C175.21 39.15 173.14 38.72 171.38 37.86C169.62 36.98 168.27 35.74 167.33 34.14C166.39 32.54 165.92 30.68 165.92 28.56C165.92 25.62 166.47 23.01 167.57 20.73C168.69 18.45 170.2 16.69 172.1 15.45C174 14.19 176.11 13.56 178.43 13.56C180.59 13.56 182.23 14.12 183.35 15.24C184.47 16.34 185.03 17.8 185.03 19.62C185.03 20.84 184.81 21.82 184.37 22.56C183.95 23.3 183.34 23.67 182.54 23.67C181.98 23.67 181.54 23.54 181.22 23.28C180.9 23.02 180.74 22.64 180.74 22.14C180.74 21.96 180.78 21.63 180.86 21.15C180.98 20.55 181.04 20.07 181.04 19.71C181.04 17.89 180.07 16.98 178.13 16.98C176.81 16.98 175.55 17.41 174.35 18.27C173.15 19.13 172.18 20.4 171.44 22.08C170.7 23.74 170.33 25.72 170.33 28.02C170.33 30.42 171 32.28 172.34 33.6C173.68 34.9 175.66 35.55 178.28 35.55C179.58 35.55 180.89 35.39 182.21 35.07C183.55 34.73 185.03 34.22 186.65 33.54C186.95 33.42 187.2 33.36 187.4 33.36C187.72 33.36 187.96 33.48 188.12 33.72C188.28 33.96 188.36 34.27 188.36 34.65C188.36 35.87 187.7 36.77 186.38 37.35C184.96 37.97 183.48 38.43 181.94 38.73C180.42 39.01 178.97 39.15 177.59 39.15ZM197.376 32.31C197.636 32.31 197.836 32.43 197.976 32.67C198.136 32.91 198.216 33.24 198.216 33.66C198.216 34.46 198.026 35.08 197.646 35.52C196.786 36.58 195.846 37.45 194.826 38.13C193.826 38.81 192.686 39.15 191.406 39.15C189.646 39.15 188.336 38.35 187.476 36.75C186.636 35.15 186.216 33.08 186.216 30.54C186.216 28.1 186.526 25.32 187.146 22.2C187.786 19.08 188.716 16.4 189.936 14.16C191.176 11.92 192.646 10.8 194.346 10.8C195.306 10.8 196.056 11.25 196.596 12.15C197.156 13.03 197.436 14.3 197.436 15.96C197.436 18.34 196.776 21.1 195.456 24.24C194.136 27.38 192.346 30.49 190.086 33.57C190.226 34.39 190.456 34.98 190.776 35.34C191.096 35.68 191.516 35.85 192.036 35.85C192.856 35.85 193.576 35.62 194.196 35.16C194.816 34.68 195.606 33.87 196.566 32.73C196.806 32.45 197.076 32.31 197.376 32.31ZM193.686 13.77C193.226 13.77 192.706 14.6 192.126 16.26C191.546 17.92 191.036 19.98 190.596 22.44C190.156 24.9 189.916 27.26 189.876 29.52C191.296 27.18 192.426 24.84 193.266 22.5C194.106 20.14 194.526 17.99 194.526 16.05C194.526 14.53 194.246 13.77 193.686 13.77ZM199.189 39.15C197.949 39.15 196.959 38.7 196.219 37.8C195.479 36.9 195.109 35.72 195.109 34.26C195.109 32.66 195.479 31.15 196.219 29.73C196.959 28.29 197.939 27.14 199.159 26.28C200.399 25.4 201.709 24.96 203.089 24.96C203.529 24.96 203.819 25.05 203.959 25.23C204.119 25.39 204.249 25.69 204.349 26.13C204.769 26.05 205.209 26.01 205.669 26.01C206.649 26.01 207.139 26.36 207.139 27.06C207.139 27.48 206.989 28.48 206.689 30.06C206.229 32.36 205.999 33.96 205.999 34.86C205.999 35.16 206.069 35.4 206.209 35.58C206.369 35.76 206.569 35.85 206.809 35.85C207.189 35.85 207.649 35.61 208.189 35.13C208.729 34.63 209.459 33.83 210.379 32.73C210.619 32.45 210.889 32.31 211.189 32.31C211.449 32.31 211.649 32.43 211.789 32.67C211.949 32.91 212.029 33.24 212.029 33.66C212.029 34.46 211.839 35.08 211.459 35.52C210.639 36.54 209.769 37.4 208.849 38.1C207.929 38.8 207.039 39.15 206.179 39.15C205.519 39.15 204.909 38.93 204.349 38.49C203.809 38.03 203.399 37.41 203.119 36.63C202.079 38.31 200.769 39.15 199.189 39.15ZM200.269 36.12C200.709 36.12 201.129 35.86 201.529 35.34C201.929 34.82 202.219 34.13 202.399 33.27L203.509 27.75C202.669 27.77 201.889 28.09 201.169 28.71C200.469 29.31 199.909 30.11 199.489 31.11C199.069 32.11 198.859 33.17 198.859 34.29C198.859 34.91 198.979 35.37 199.219 35.67C199.479 35.97 199.829 36.12 200.269 36.12ZM215.17 39.81C214.13 39.81 213.33 39.57 212.77 39.09C212.23 38.61 211.96 38.07 211.96 37.47C211.96 36.95 212.15 36.5 212.53 36.12C212.91 35.74 213.47 35.55 214.21 35.55C214.47 35.55 214.77 35.58 215.11 35.64C215.47 35.68 215.74 35.71 215.92 35.73C215.9 35.21 215.78 34.72 215.56 34.26C215.36 33.8 215.1 33.36 214.78 32.94C214.46 32.5 214.16 32.12 213.88 31.8C213.26 32.98 212.64 33.96 212.02 34.74C211.42 35.52 210.76 36.26 210.04 36.96C209.68 37.32 209.3 37.5 208.9 37.5C208.58 37.5 208.32 37.39 208.12 37.17C207.92 36.93 207.82 36.64 207.82 36.3C207.82 35.9 207.96 35.53 208.24 35.19L208.63 34.71C209.73 33.35 210.56 32.23 211.12 31.35C211.46 30.77 211.86 30 212.32 29.04C212.78 28.06 213.23 27.05 213.67 26.01C214.05 25.13 214.84 24.69 216.04 24.69C216.6 24.69 216.99 24.74 217.21 24.84C217.43 24.94 217.54 25.1 217.54 25.32C217.54 25.44 217.5 25.63 217.42 25.89C217.34 26.15 217.23 26.41 217.09 26.67C216.73 27.39 216.55 28 216.55 28.5C216.55 28.8 216.65 29.13 216.85 29.49C217.07 29.85 217.4 30.3 217.84 30.84C218.48 31.68 218.96 32.4 219.28 33C219.62 33.58 219.79 34.22 219.79 34.92C219.79 35.12 219.77 35.4 219.73 35.76C220.71 35.38 221.86 34.37 223.18 32.73C223.42 32.45 223.69 32.31 223.99 32.31C224.25 32.31 224.45 32.43 224.59 32.67C224.75 32.91 224.83 33.24 224.83 33.66C224.83 34.42 224.64 35.04 224.26 35.52C223.26 36.76 222.3 37.61 221.38 38.07C220.48 38.51 219.36 38.75 218.02 38.79C217.22 39.47 216.27 39.81 215.17 39.81ZM227.973 39.81C226.933 39.81 226.133 39.57 225.573 39.09C225.033 38.61 224.763 38.07 224.763 37.47C224.763 36.95 224.953 36.5 225.333 36.12C225.713 35.74 226.273 35.55 227.013 35.55C227.273 35.55 227.573 35.58 227.913 35.64C228.273 35.68 228.543 35.71 228.723 35.73C228.703 35.21 228.583 34.72 228.363 34.26C228.163 33.8 227.903 33.36 227.583 32.94C227.263 32.5 226.963 32.12 226.683 31.8C226.063 32.98 225.443 33.96 224.823 34.74C224.223 35.52 223.563 36.26 222.843 36.96C222.483 37.32 222.103 37.5 221.703 37.5C221.383 37.5 221.123 37.39 220.923 37.17C220.723 36.93 220.623 36.64 220.623 36.3C220.623 35.9 220.763 35.53 221.043 35.19L221.433 34.71C222.533 33.35 223.363 32.23 223.923 31.35C224.283 30.77 224.643 30.08 225.003 29.28C225.383 28.48 225.873 27.39 226.473 26.01C226.853 25.13 227.643 24.69 228.843 24.69C229.403 24.69 229.793 24.74 230.013 24.84C230.233 24.94 230.343 25.1 230.343 25.32C230.343 25.44 230.303 25.63 230.223 25.89C230.143 26.15 230.033 26.41 229.893 26.67C229.533 27.39 229.353 28 229.353 28.5C229.353 28.8 229.453 29.13 229.653 29.49C229.873 29.85 230.203 30.3 230.643 30.84C231.283 31.68 231.763 32.4 232.083 33C232.423 33.58 232.593 34.22 232.593 34.92C232.593 35.76 232.393 36.56 231.993 37.32C231.613 38.06 231.073 38.66 230.373 39.12C229.673 39.58 228.873 39.81 227.973 39.81Z" fill="#202224"/>
</svg>
